<svg width="20" height="20" viewBox="0 0 20 20" fill="none" xmlns="http://www.w3.org/2000/svg">
<circle cx="10" cy="10" r="10" fill="#FF0000"/>
<path d="M10.0332 11.5918H9.05469L8.97852 5.46875H10.1152L10.0332 11.5918ZM8.9375 13.4551C8.9375 13.2793 8.99023 13.1328 9.0957 13.0156C9.20508 12.8945 9.36523 12.834 9.57617 12.834C9.78711 12.834 9.94727 12.8945 10.0566 13.0156C10.166 13.1328 10.2207 13.2793 10.2207 13.4551C10.2207 13.6309 10.166 13.7773 10.0566 13.8945C9.94727 14.0078 9.78711 14.0645 9.57617 14.0645C9.36523 14.0645 9.20508 14.0078 9.0957 13.8945C8.99023 13.7773 8.9375 13.6309 8.9375 13.4551Z" fill="white"/>
</svg>
